<svg id="svg" version="1.1" xmlns="http://www.w3.org/2000/svg" xmlns:xlink="http://www.w3.org/1999/xlink" width="400" height="400" viewBox="0, 0, 400,400"><g id="svgg"><path id="path0" d="M197.730 125.675 C 196.286 126.556,195.487 128.419,195.878 129.999 L 196.167 131.167 200.000 131.167 L 203.833 131.167 204.122 129.999 C 204.725 127.560,202.615 125.002,200.000 125.002 C 199.358 125.002,198.337 125.305,197.730 125.675 M185.333 135.500 L 185.333 137.667 186.333 137.667 L 187.333 137.667 187.333 154.167 L 187.333 170.667 186.333 170.667 L 185.333 170.667 185.333 172.833 L 185.333 175.000 200.000 175.000 L 214.667 175.000 214.667 172.833 L 214.667 170.667 213.667 170.667 L 212.667 170.667 212.667 154.167 L 212.667 137.667 213.667 137.667 L 214.667 137.667 214.667 135.500 L 214.667 133.333 200.000 133.333 L 185.333 133.333 185.333 135.500 M195.050 139.833 C 193.360 141.025,191.908 142.000,191.822 142.000 C 191.737 142.000,191.667 141.025,191.667 139.833 L 191.667 137.667 194.895 137.667 L 198.123 137.667 195.050 139.833 M208.263 142.236 L 208.167 145.139 200.500 150.577 C 196.283 153.568,192.571 156.167,192.250 156.353 C 191.713 156.663,191.667 156.457,191.667 153.752 L 191.667 150.814 199.750 145.089 C 204.196 141.941,207.952 139.357,208.096 139.349 C 208.241 139.340,208.316 140.640,208.263 142.236 M208.333 156.636 L 208.333 159.604 200.601 165.017 C 191.079 171.683,191.667 171.482,191.667 168.065 L 191.667 165.386 199.917 159.547 C 204.454 156.336,208.204 153.699,208.250 153.688 C 208.296 153.676,208.333 155.003,208.333 156.636 M80.000 167.500 L 80.000 170.000 125.000 170.000 L 170.000 170.000 170.000 167.500 L 170.000 165.000 125.000 165.000 L 80.000 165.000 80.000 167.500 M230.000 167.500 L 230.000 170.000 275.000 170.000 L 320.000 170.000 320.000 167.500 L 320.000 165.000 275.000 165.000 L 230.000 165.000 230.000 167.500 M208.333 169.500 L 208.333 170.667 206.584 170.667 L 204.835 170.667 206.476 169.500 C 207.379 168.858,208.166 168.333,208.225 168.333 C 208.285 168.333,208.333 168.858,208.333 169.500 M40.000 220.000 L 40.000 260.000 200.000 260.000 L 360.000 260.000 360.000 220.000 L 360.000 180.000 200.000 180.000 L 40.000 180.000 40.000 220.000 M355.000 220.000 L 355.000 255.000 200.000 255.000 L 45.000 255.000 45.000 220.000 L 45.000 185.000 200.000 185.000 L 355.000 185.000 355.000 220.000 M116.833 205.975 C 105.601 207.200,100.108 210.237,102.460 213.923 C 104.577 217.240,108.181 218.655,109.003 216.491 C 109.794 214.412,110.595 215.510,109.882 217.695 C 109.618 218.505,108.996 220.742,108.499 222.667 C 108.002 224.592,107.383 226.578,107.124 227.080 C 106.865 227.582,106.681 228.032,106.714 228.080 C 106.748 228.128,106.498 228.992,106.160 230.000 C 105.821 231.008,105.500 232.058,105.447 232.333 C 105.394 232.608,105.259 233.294,105.146 233.858 C 104.523 236.982,109.200 241.231,110.780 238.975 C 111.263 238.285,111.265 238.285,112.549 238.935 C 114.198 239.771,116.679 239.810,118.631 239.031 C 119.476 238.694,121.067 238.156,122.167 237.835 C 133.578 234.504,135.474 228.814,127.344 222.293 L 125.855 221.098 127.803 218.966 C 132.356 213.981,132.297 211.411,127.548 207.837 L 125.108 206.000 122.137 205.861 C 120.503 205.784,118.117 205.835,116.833 205.975 M177.000 211.708 C 175.866 212.160,174.911 213.085,172.743 215.833 C 170.416 218.782,170.074 219.063,169.309 218.654 C 168.383 218.158,168.110 218.260,167.715 219.250 C 167.276 220.348,166.115 225.377,165.656 228.167 C 165.475 229.267,165.082 231.202,164.782 232.468 C 164.362 234.238,164.325 234.910,164.618 235.380 C 164.828 235.716,165.000 236.360,165.000 236.812 C 165.000 238.306,167.062 239.538,168.456 238.877 C 169.500 238.381,171.000 235.899,171.000 234.666 C 171.000 234.458,171.651 234.822,172.447 235.475 C 176.676 238.940,185.491 241.313,187.551 239.541 C 189.259 238.072,188.354 234.000,186.320 234.000 C 183.438 234.000,176.000 231.400,176.000 230.392 C 176.000 230.249,177.088 229.783,178.417 229.357 C 183.195 227.827,185.731 225.941,186.172 223.590 C 186.782 220.339,183.858 214.895,180.107 212.298 C 178.606 211.259,178.280 211.197,177.000 211.708 M201.667 211.657 C 192.412 212.634,187.931 215.305,190.126 218.536 C 192.125 221.477,194.955 222.174,195.758 219.923 C 195.841 219.690,196.030 219.614,196.179 219.752 C 196.498 220.050,194.526 228.237,193.671 230.167 C 192.990 231.701,192.572 232.950,192.497 233.667 C 192.468 233.942,192.342 234.480,192.217 234.863 C 191.440 237.237,195.522 240.947,196.979 239.192 C 197.318 238.783,197.558 238.800,198.693 239.308 C 200.141 239.956,202.215 239.908,203.644 239.193 C 204.115 238.957,205.228 238.586,206.117 238.369 C 215.050 236.185,217.335 231.386,211.880 226.265 L 209.500 224.031 211.214 222.265 C 213.928 219.471,214.445 218.043,213.531 215.856 C 212.999 214.582,209.705 211.972,208.361 211.760 C 206.371 211.445,204.012 211.409,201.667 211.657 M256.334 211.708 C 255.200 212.160,254.245 213.085,252.076 215.833 C 249.750 218.782,249.407 219.063,248.643 218.654 C 247.716 218.158,247.443 218.260,247.048 219.250 C 246.609 220.348,245.448 225.377,244.990 228.167 C 244.809 229.267,244.415 231.202,244.115 232.468 C 243.696 234.238,243.658 234.910,243.952 235.380 C 244.162 235.716,244.333 236.360,244.333 236.812 C 244.333 238.306,246.396 239.538,247.789 238.877 C 248.833 238.381,250.333 235.899,250.333 234.666 C 250.333 234.458,250.985 234.822,251.781 235.475 C 256.009 238.940,264.824 241.313,266.884 239.541 C 268.592 238.072,267.688 234.000,265.654 234.000 C 262.771 234.000,255.333 231.400,255.333 230.392 C 255.333 230.249,256.421 229.783,257.750 229.357 C 262.528 227.827,265.064 225.941,265.505 223.590 C 266.115 220.339,263.191 214.895,259.440 212.298 C 257.940 211.259,257.613 211.197,256.334 211.708 M285.667 211.712 C 283.423 212.079,274.322 215.131,272.530 216.116 C 270.651 217.149,269.965 218.243,269.865 220.363 C 269.707 223.722,270.986 224.748,276.079 225.350 C 279.252 225.725,282.716 226.756,283.344 227.513 C 284.419 228.808,277.821 232.760,273.833 233.209 C 271.554 233.466,271.345 233.658,271.339 235.500 C 271.324 239.893,274.568 240.655,280.777 237.719 C 287.017 234.768,289.964 229.587,287.316 226.221 C 286.959 225.767,286.667 225.231,286.667 225.031 C 286.667 224.831,286.539 224.667,286.384 224.667 C 286.228 224.667,285.878 224.104,285.604 223.417 C 285.195 222.388,284.713 221.967,282.877 221.035 C 280.428 219.793,279.922 219.333,281.002 219.333 C 281.392 219.333,282.038 219.154,282.439 218.936 C 282.901 218.683,285.151 218.512,288.605 218.468 C 293.254 218.408,294.137 218.313,294.688 217.814 C 295.377 217.190,295.543 216.169,295.009 215.839 C 294.830 215.729,294.452 215.157,294.168 214.569 C 292.698 211.525,290.767 210.876,285.667 211.712 M149.374 212.833 C 148.201 214.558,146.105 216.333,145.240 216.333 C 144.823 216.333,144.172 216.550,143.793 216.815 C 143.096 217.304,135.333 233.477,135.333 234.442 C 135.333 234.727,135.196 235.045,135.029 235.149 C 134.594 235.418,136.034 237.996,137.037 238.745 C 138.635 239.937,141.154 238.447,141.708 235.983 C 142.282 233.426,144.318 229.736,144.344 231.205 C 144.382 233.312,145.684 233.597,151.583 232.790 C 153.553 232.521,153.669 233.757,151.750 234.552 C 150.074 235.247,150.087 235.207,151.144 236.310 C 151.655 236.843,152.005 237.479,151.921 237.723 C 151.837 237.967,152.158 238.428,152.634 238.748 C 155.963 240.982,160.573 235.764,159.171 231.348 C 159.040 230.933,159.350 230.523,160.243 229.933 C 162.571 228.392,162.667 226.070,160.406 226.011 C 160.171 226.005,159.890 225.768,159.781 225.484 C 159.649 225.140,159.244 225.001,158.562 225.068 C 157.317 225.188,157.068 224.510,155.989 218.061 C 155.197 213.321,155.097 213.147,152.806 212.522 C 151.904 212.276,150.942 211.983,150.667 211.871 C 150.336 211.736,149.898 212.062,149.374 212.833 M234.833 212.397 C 229.741 213.142,222.851 214.926,221.765 215.780 C 220.770 216.563,220.874 218.829,222.011 221.160 L 222.659 222.487 221.420 225.160 C 220.738 226.630,220.098 227.908,219.998 228.000 C 218.651 229.229,218.383 236.183,219.666 236.611 C 219.850 236.672,220.000 236.922,220.000 237.167 C 220.000 239.703,232.741 239.913,237.892 237.463 C 241.147 235.914,241.475 234.275,238.970 232.075 L 237.784 231.034 235.297 231.655 C 233.929 231.997,231.049 232.385,228.896 232.517 L 224.982 232.758 225.346 231.800 C 225.547 231.272,226.006 230.362,226.368 229.778 L 227.025 228.715 230.371 228.695 C 233.872 228.675,235.475 228.227,237.681 226.656 C 238.805 225.856,239.028 224.440,238.083 224.107 C 237.249 223.812,236.000 222.625,236.000 222.127 C 236.000 221.800,235.212 221.749,232.509 221.902 C 229.424 222.076,228.992 222.034,228.801 221.535 C 228.504 220.762,228.717 220.618,230.918 220.114 C 232.616 219.726,234.717 219.199,239.599 217.940 C 241.525 217.444,243.000 216.038,243.000 214.700 C 243.000 214.131,242.862 213.667,242.692 213.667 C 242.523 213.667,241.960 213.314,241.442 212.883 C 240.125 211.787,239.378 211.732,234.833 212.397 M122.029 212.946 C 121.685 213.589,118.707 215.971,117.413 216.639 C 116.750 216.980,116.479 216.877,115.163 215.776 C 113.328 214.242,113.326 214.182,115.083 213.527 C 118.559 212.233,122.591 211.896,122.029 212.946 M205.690 218.143 C 205.081 218.771,203.948 219.622,203.172 220.034 L 201.762 220.782 200.801 219.891 C 200.272 219.401,199.726 219.000,199.587 219.000 C 198.753 219.000,199.573 218.310,200.917 217.881 C 203.113 217.180,203.622 217.083,205.315 217.039 L 206.797 217.000 205.690 218.143 M178.578 219.989 C 180.286 221.580,180.002 222.220,177.097 223.322 C 173.163 224.814,172.839 224.238,175.768 220.964 C 177.370 219.174,177.613 219.090,178.578 219.989 M257.911 219.989 C 259.620 221.580,259.335 222.220,256.430 223.322 C 252.497 224.814,252.173 224.238,255.102 220.964 C 256.704 219.174,256.946 219.090,257.911 219.989 M150.509 224.036 C 150.960 225.879,150.998 226.462,150.680 226.658 C 150.214 226.946,146.295 227.407,146.087 227.198 C 145.866 226.977,149.456 221.667,149.825 221.667 C 149.882 221.667,150.189 222.733,150.509 224.036 M124.782 225.500 C 125.554 225.823,125.916 226.164,125.802 226.461 C 125.204 228.020,118.817 231.358,114.622 232.305 L 113.410 232.579 114.378 229.706 C 114.911 228.126,115.457 226.658,115.593 226.443 C 116.338 225.265,122.666 224.616,124.782 225.500 M208.963 228.155 L 209.759 228.567 208.536 229.679 C 206.845 231.218,200.041 234.152,199.475 233.586 C 199.372 233.483,199.685 232.280,200.171 230.913 L 201.053 228.427 202.943 228.009 C 203.983 227.780,204.983 227.542,205.167 227.481 C 205.728 227.295,208.120 227.720,208.963 228.155 M80.000 275.000 L 80.000 277.667 200.000 277.667 L 320.000 277.667 320.000 275.000 L 320.000 272.333 200.000 272.333 L 80.000 272.333 80.000 275.000 " stroke="none" fill="#f4f4f4" fill-rule="evenodd"></path><path id="path1" d="" stroke="none" fill="#f8f4f4" fill-rule="evenodd"></path><path id="path2" d="" stroke="none" fill="#f8f4f4" fill-rule="evenodd"></path><path id="path3" d="" stroke="none" fill="#f8f4f4" fill-rule="evenodd"></path><path id="path4" d="" stroke="none" fill="#f8f4f4" fill-rule="evenodd"></path></g></svg>